<svg width="347" height="267" viewBox="0 0 347 267" fill="none" xmlns="http://www.w3.org/2000/svg">
<path d="M274.209 266.515C272.484 266.514 270.767 266.254 269.106 265.744L200.149 245.55L200.351 244.756L269.309 264.95C270.904 265.44 272.553 265.69 274.209 265.691C282.325 265.691 289.522 260.546 291.712 252L340.8 60.4816H340.799L340.906 60.0647C342.196 54.9901 341.594 49.5632 339.233 44.9728C336.872 40.3825 332.945 37.003 328.311 35.5746L217.47 1.56948C212.83 0.152733 207.865 0.807243 203.666 3.38946C199.466 5.97168 196.374 10.2708 195.067 15.3439L191.216 30.3729L190.49 30.1503L194.342 15.1213C195.702 9.83769 198.923 5.36013 203.297 2.67079C207.67 -0.0185493 212.841 -0.700082 217.673 0.775684L328.515 34.7808C333.281 36.2499 337.333 39.7023 339.802 44.3989C342.271 49.0954 342.961 54.6629 341.725 59.9094L341.728 59.9104L341.627 60.3073L292.438 252.222C290.157 261.123 282.661 266.515 274.209 266.515Z" fill="#2F2E41"/>
<path d="M195.526 34.6524L196.788 35.0399L200.672 36.2312L201.079 34.6401L199.625 34.1949L200.902 29.2113L203.973 26.2929L204.79 35.7819L202.53 35.0852L202.123 36.6763L207.925 38.4571L208.332 36.866L207.1 36.4909L205.917 24.4462L211.945 18.7125L213.637 19.2318L214.044 17.6407L208.238 15.86L207.831 17.4511L209.745 18.0364L202.078 24.6276L204.203 16.3382L205.657 16.7833L206.064 15.1922L200.258 13.4115L199.851 15.0026L202.029 15.6704L197.451 33.5271L195.273 32.8593L195.217 33.0737L194.983 33.997L195.526 34.6524Z" fill="#0C0C0C"/>
<path d="M204.866 49.6979C203.416 50.3849 202.001 51.1568 200.627 52.0104C200.375 52.167 200.122 52.3278 199.874 52.4885V47.3896C199.875 45.5553 199.638 43.7301 199.169 41.9691C199.387 41.8207 199.61 41.6599 199.828 41.4992C200.028 41.3549 200.231 41.2065 200.431 41.0581C201.671 44.0768 203.155 46.9683 204.866 49.6979V49.6979Z" fill="#0C0C0C"/>
<path d="M273.918 252.204L272.228 251.686L271.821 253.273L277.626 255.054L278.033 253.466L276.121 252.88L283.786 246.286L281.66 254.579L280.209 254.134L279.802 255.722L285.607 257.502L286.014 255.915L283.837 255.247L288.414 237.387L290.591 238.055L290.998 236.467L285.194 234.686L284.787 236.274L286.238 236.719L284.96 241.704L281.891 244.623L281.075 235.135L283.335 235.829L283.742 234.241L277.938 232.46L277.531 234.048L278.765 234.426L279.948 246.47L273.918 252.204Z" fill="#0C0C0C"/>
<path d="M280.997 221.218C283.713 219.943 286.297 218.354 288.705 216.479C289.995 219.47 291.478 222.357 293.143 225.118C290.444 226.431 287.863 228.018 285.434 229.857C284.193 226.839 282.707 223.948 280.997 221.218V221.218Z" fill="#0C0C0C"/>
<path d="M271.373 237.082L271.01 236.97L199.99 215.182L200.193 214.388L270.851 236.066L315.509 61.8283L215.928 31.2781L200.74 90.5388L200.014 90.3162L215.407 30.2616L215.769 30.3729L316.438 61.2574L316.336 61.6539L271.373 237.082Z" fill="#2F2E41"/>
<path d="M15.6862 253.033C20.3688 262.534 30.3069 266.613 30.3069 266.613C30.3069 266.613 32.6531 255.287 27.9705 245.786C23.2879 236.285 13.3498 232.207 13.3498 232.207C13.3498 232.207 11.0036 243.532 15.6862 253.033Z" fill="#2F2E41"/>
<path d="M18.9047 249.907C27.3587 255.472 30.6146 266.525 30.6146 266.525C30.6146 266.525 20.1639 268.556 11.7099 262.991C3.2559 257.427 0 246.374 0 246.374C0 246.374 10.4507 244.343 18.9047 249.907Z" fill="#0C0C0C"/>
<path d="M199.828 41.4992C199.18 39.1627 198.15 36.9742 196.788 35.0399C196.303 34.3487 195.778 33.6919 195.217 33.0737C193.496 31.1781 191.449 29.6741 189.194 28.6482C186.939 27.6224 184.521 27.0951 182.079 27.0967H66.9623C62.0446 27.1022 57.3297 29.2419 53.8523 33.0464C50.375 36.8508 48.4192 42.0092 48.4142 47.3896V246.707C48.4192 252.087 50.375 257.246 53.8523 261.05C57.3297 264.855 62.0446 266.995 66.9623 267H182.079C186.997 266.995 191.712 264.855 195.189 261.05C198.666 257.246 200.622 252.087 200.627 246.707V47.3896C200.629 45.3936 200.36 43.4085 199.828 41.4992V41.4992ZM199.874 246.707C199.868 251.869 197.991 256.817 194.655 260.467C191.319 264.116 186.797 266.169 182.079 266.176H66.9623C62.2447 266.169 57.7218 264.116 54.3859 260.467C51.05 256.817 49.1734 251.869 49.1677 246.707V47.3896C49.1734 42.2281 51.05 37.2799 54.3859 33.6302C57.7218 29.9805 62.2447 27.9273 66.9623 27.9211H182.079C184.495 27.9199 186.885 28.4582 189.104 29.5029C191.323 30.5477 193.323 32.0769 194.983 33.997C195.168 34.2114 195.349 34.4298 195.526 34.6524C198.33 38.1864 199.874 42.7094 199.874 47.3896V246.707Z" fill="#2F2E41"/>
<path d="M66.7784 59.129C66.7575 59.0752 66.7317 59.0264 66.7087 58.9747C67.5585 57.1555 67.9873 55.136 67.9575 53.0933C67.9575 46.7035 64.3077 42.2407 59.0822 42.2407C53.8566 42.2407 50.2068 46.7035 50.2068 53.0933C50.2068 59.4832 53.8566 63.9459 59.0822 63.9459C60.3156 63.9732 61.5394 63.702 62.6659 63.1517C63.7924 62.6013 64.7938 61.7854 65.5986 60.7624C67.2718 63.7245 70.5063 64.1154 70.6553 64.1317L70.8317 62.2374C70.71 62.2231 67.8386 61.8555 66.7784 59.129ZM59.0822 62.042C54.881 62.042 51.9471 58.3622 51.9471 53.0933C51.9471 47.8245 54.881 44.1447 59.0822 44.1447C63.2833 44.1447 66.2173 47.8245 66.2173 53.0933C66.2343 54.5955 65.9635 56.0848 65.4223 57.4655C62.8248 55.7389 57.9922 56.7706 57.3368 56.9217L57.6947 58.785C59.4698 58.3783 63.0012 58.0522 64.5384 59.1073C63.9073 60.0354 63.0833 60.7856 62.1344 61.296C61.1856 61.8063 60.1393 62.062 59.0822 62.042V62.042Z" fill="#0C0C0C"/>
<path d="M59.7172 68.4747C59.1508 67.8559 58.383 67.5085 57.5826 67.5088C56.7822 67.5091 56.0146 67.8571 55.4486 68.4763C54.8827 69.0955 54.5646 69.9353 54.5643 70.811C54.564 71.6867 54.8816 72.5267 55.4471 73.1463L59.7172 77.818L63.9872 73.1463C64.5515 72.5264 64.868 71.6868 64.8672 70.8119C64.8664 69.9369 64.5484 69.098 63.9829 68.4793C63.4174 67.8607 62.6506 67.5127 61.8509 67.5118C61.0512 67.5109 60.2838 67.8572 59.7172 68.4747V68.4747Z" fill="#0C0C0C"/>
<path d="M182.263 236.244C182.284 236.298 182.31 236.347 182.333 236.399C181.483 238.218 181.054 240.237 181.084 242.28C181.084 248.67 184.734 253.133 189.959 253.133C195.185 253.133 198.834 248.67 198.834 242.28C198.834 235.89 195.185 231.427 189.959 231.427C188.726 231.4 187.502 231.671 186.375 232.222C185.249 232.772 184.247 233.588 183.443 234.611C181.769 231.649 178.535 231.258 178.386 231.242L178.21 233.136C178.331 233.15 181.203 233.518 182.263 236.244ZM189.959 233.331C194.16 233.331 197.094 237.011 197.094 242.28C197.094 247.549 194.16 251.229 189.959 251.229C185.758 251.229 182.824 247.549 182.824 242.28C182.807 240.778 183.078 239.289 183.619 237.908C186.216 239.635 191.049 238.603 191.704 238.452L191.347 236.588C189.571 236.995 186.04 237.321 184.503 236.266C185.134 235.338 185.958 234.588 186.907 234.077C187.856 233.567 188.902 233.311 189.959 233.331V233.331Z" fill="#0C0C0C"/>
<path d="M189.324 226.899C189.891 227.517 190.658 227.863 191.458 227.863C192.258 227.862 193.025 227.514 193.591 226.895C194.156 226.276 194.475 225.437 194.475 224.562C194.476 223.687 194.159 222.847 193.594 222.227L189.324 217.555L185.054 222.227C184.489 222.847 184.172 223.687 184.173 224.562C184.174 225.437 184.492 226.276 185.057 226.895C185.623 227.514 186.39 227.862 187.19 227.863C187.99 227.863 188.758 227.517 189.324 226.899V226.899Z" fill="#0C0C0C"/>
<path d="M146.087 236.929C146.17 237.201 146.241 237.477 146.305 237.753H149.101C149.327 237.495 149.536 237.22 149.726 236.929H146.087ZM72.2446 55.9711V237.753H176.42V55.9711H72.2446ZM175.666 236.929H72.9981V56.7955H175.666V236.929ZM146.087 236.929C146.17 237.201 146.241 237.477 146.305 237.753H149.101C149.327 237.495 149.536 237.22 149.726 236.929H146.087Z" fill="#2F2E41"/>
<path d="M347 265.99H4.52118V266.814H347V265.99Z" fill="#3F3D56"/>
<g clip-path="url(#clip0_1_46)">
<path fill-rule="evenodd" clip-rule="evenodd" d="M122.9 119.466C123.35 110.626 134.601 97.7275 136.551 97.5826C138.501 97.4377 132.351 118.017 130.701 119.466C129.051 120.915 123.05 119.901 122.9 119.466Z" fill="#784421" stroke="black" stroke-width="4" stroke-linejoin="round"/>
<path fill-rule="evenodd" clip-rule="evenodd" d="M136.551 97.5797C136.395 97.5913 136.176 97.6878 135.915 97.8516C135.627 101.669 129.042 117.059 127.467 118.177C126.579 118.808 124.692 118.739 123.002 118.448C122.957 118.79 122.918 119.132 122.9 119.463C123.05 119.898 129.051 120.912 130.701 119.463C132.351 118.014 138.501 97.4345 136.551 97.5794V97.5797Z" fill="black" fill-opacity="0.314"/>
<path d="M160.928 152.013C160.977 156.738 160.055 161.427 158.216 165.806C156.378 170.186 153.659 174.17 150.217 177.528C146.775 180.887 142.679 183.553 138.164 185.372C133.649 187.191 128.806 188.128 123.914 188.128C119.022 188.128 114.179 187.191 109.665 185.372C105.15 183.553 101.053 180.887 97.6112 177.528C94.1694 174.17 91.4506 170.186 89.6121 165.806C87.7736 161.427 86.8518 156.738 86.9001 152.013C86.8518 147.287 87.7736 142.598 89.6121 138.219C91.4506 133.839 94.1694 129.855 97.6112 126.497C101.053 123.138 105.15 120.472 109.665 118.653C114.179 116.834 119.022 115.897 123.914 115.897C128.806 115.897 133.649 116.834 138.164 118.653C142.679 120.472 146.775 123.138 150.217 126.497C153.659 129.855 156.378 133.839 158.216 138.219C160.055 142.598 160.977 147.287 160.928 152.013V152.013Z" fill="#A05A2C" stroke="black" stroke-width="3.99982" stroke-linecap="round" stroke-linejoin="round"/>
<path d="M154.032 146.367C154.066 150.019 153.352 153.641 151.929 157.025C150.506 160.408 148.404 163.486 145.744 166.08C143.083 168.674 139.917 170.734 136.428 172.139C132.939 173.544 129.196 174.268 125.416 174.268C121.636 174.268 117.894 173.544 114.405 172.139C110.916 170.734 107.75 168.674 105.089 166.08C102.428 163.486 100.326 160.408 98.9036 157.025C97.4811 153.641 96.7665 150.019 96.8011 146.367C96.7665 142.715 97.4811 139.093 98.9036 135.709C100.326 132.325 102.428 129.248 105.089 126.654C107.75 124.059 110.916 122 114.405 120.595C117.894 119.19 121.636 118.466 125.416 118.466C129.196 118.466 132.939 119.19 136.428 120.595C139.917 122 143.083 124.059 145.744 126.654C148.404 129.248 150.506 132.325 151.929 135.709C153.352 139.093 154.066 142.715 154.032 146.367V146.367Z" fill="black" fill-opacity="0.314"/>
<path d="M156.486 135.022C157.446 138.202 157.959 141.57 157.959 145.048C157.959 164.79 141.378 180.809 120.944 180.809C106.898 180.809 94.6642 173.233 88.3941 162.085C92.9031 176.925 107.105 187.774 123.918 187.774C144.351 187.774 160.929 171.755 160.929 152.013C160.929 145.865 159.318 140.077 156.486 135.022V135.022Z" fill="black" fill-opacity="0.314"/>
<path d="M149.127 186.775C149.127 193.018 143.883 192.795 137.418 192.795C130.956 192.795 125.709 193.018 125.709 186.775C125.709 180.528 130.956 175.462 137.418 175.462C143.883 175.462 149.127 180.528 149.127 186.775ZM122.12 186.775C122.12 193.018 116.876 192.795 110.411 192.795C106.817 192.795 103.601 192.864 101.453 191.853C99.7372 191.044 98.7022 189.545 98.7022 186.775C98.7022 180.528 103.949 175.462 110.411 175.462C116.876 175.462 122.12 180.528 122.12 186.775Z" fill="#A05A2C" stroke="black" stroke-width="4" stroke-linecap="round" stroke-linejoin="round"/>
<path d="M103.835 192.065C101.192 188.05 103.457 184.766 103.457 184.766M114.719 191.882C115.769 188.598 114.569 184.766 114.569 184.766L114.719 191.882ZM109.31 192.613C108.023 187.323 109.496 183.126 109.496 183.126L109.31 192.613Z" stroke="black" stroke-width="4" stroke-linecap="round"/>
<path d="M152.532 142.454C152.566 146.106 151.852 149.728 150.429 153.112C149.006 156.495 146.904 159.573 144.244 162.167C141.583 164.761 138.417 166.821 134.928 168.226C131.439 169.631 127.696 170.355 123.916 170.355C120.136 170.355 116.394 169.631 112.905 168.226C109.416 166.821 106.25 164.761 103.589 162.167C100.928 159.573 98.8261 156.495 97.4036 153.112C95.981 149.728 95.2665 146.106 95.3011 142.454C95.2665 138.802 95.981 135.18 97.4036 131.796C98.8261 128.413 100.928 125.335 103.589 122.741C106.25 120.146 109.416 118.087 112.905 116.682C116.394 115.277 120.136 114.553 123.916 114.553C127.696 114.553 131.439 115.277 134.928 116.682C138.417 118.087 141.583 120.146 144.244 122.741C146.904 125.335 149.006 128.413 150.429 131.796C151.852 135.18 152.566 138.802 152.532 142.454V142.454Z" fill="#A05A2C" stroke="black" stroke-width="3.99995" stroke-linecap="round" stroke-linejoin="round"/>
<path d="M150.033 131.13C150.489 133.092 150.735 135.129 150.735 137.225C150.735 152.486 137.91 164.879 122.114 164.879C110.48 164.879 100.467 158.158 95.9938 148.52C98.8606 160.865 110.276 170.097 123.915 170.097C139.71 170.097 152.535 157.703 152.535 142.442C152.535 138.411 151.641 134.585 150.033 131.13Z" fill="black" fill-opacity="0.314"/>
<path d="M122.678 137.23C122.688 138.278 122.482 139.317 122.073 140.288C121.665 141.259 121.061 142.142 120.297 142.886C119.534 143.63 118.625 144.221 117.624 144.624C116.622 145.027 115.548 145.235 114.463 145.235C113.379 145.235 112.305 145.027 111.303 144.624C110.302 144.221 109.393 143.63 108.63 142.886C107.866 142.142 107.262 141.259 106.854 140.288C106.445 139.317 106.239 138.278 106.249 137.23C106.239 136.182 106.445 135.142 106.854 134.172C107.262 133.201 107.866 132.318 108.63 131.573C109.393 130.829 110.302 130.239 111.303 129.835C112.305 129.432 113.379 129.225 114.463 129.225C115.548 129.225 116.622 129.432 117.624 129.835C118.625 130.239 119.534 130.829 120.297 131.573C121.061 132.318 121.665 133.201 122.073 134.172C122.482 135.142 122.688 136.182 122.678 137.23ZM141.753 137.23C141.762 138.278 141.556 139.317 141.148 140.288C140.739 141.259 140.135 142.142 139.372 142.886C138.608 143.63 137.699 144.221 136.698 144.624C135.696 145.027 134.622 145.235 133.538 145.235C132.453 145.235 131.379 145.027 130.378 144.624C129.376 144.221 128.468 143.63 127.704 142.886C126.94 142.142 126.336 141.259 125.928 140.288C125.519 139.317 125.313 138.278 125.323 137.23C125.313 136.182 125.519 135.142 125.928 134.172C126.336 133.201 126.94 132.318 127.704 131.573C128.468 130.829 129.376 130.239 130.378 129.835C131.379 129.432 132.453 129.225 133.538 129.225C134.622 129.225 135.696 129.432 136.698 129.835C137.699 130.239 138.608 130.829 139.372 131.573C140.135 132.318 140.739 133.201 141.148 134.172C141.556 135.142 141.762 136.182 141.753 137.23Z" fill="white" stroke="black" stroke-width="4.00001" stroke-linecap="round" stroke-linejoin="round"/>
<path d="M119.468 138.141C119.468 138.464 119.403 138.784 119.274 139.083C119.146 139.382 118.958 139.654 118.722 139.882C118.485 140.111 118.204 140.293 117.895 140.416C117.585 140.54 117.254 140.604 116.919 140.604C116.584 140.604 116.253 140.54 115.943 140.416C115.634 140.293 115.353 140.111 115.116 139.882C114.88 139.654 114.692 139.382 114.564 139.083C114.436 138.784 114.37 138.464 114.37 138.141C114.37 137.817 114.436 137.497 114.564 137.198C114.692 136.899 114.88 136.628 115.116 136.399C115.353 136.17 115.634 135.989 115.943 135.865C116.253 135.741 116.584 135.678 116.919 135.678C117.254 135.678 117.585 135.741 117.895 135.865C118.204 135.989 118.485 136.17 118.722 136.399C118.958 136.628 119.146 136.899 119.274 137.198C119.403 137.497 119.468 137.817 119.468 138.141V138.141ZM133.443 138.141C133.443 138.794 133.174 139.42 132.696 139.882C132.218 140.344 131.569 140.604 130.893 140.604C130.217 140.604 129.569 140.344 129.09 139.882C128.612 139.42 128.344 138.794 128.344 138.141C128.344 137.487 128.612 136.861 129.09 136.399C129.569 135.937 130.217 135.678 130.893 135.678C131.569 135.678 132.218 135.937 132.696 136.399C133.174 136.861 133.443 137.487 133.443 138.141V138.141ZM131.52 155.909C131.52 159.9 126.996 163.14 123.999 163.14C120.773 163.14 116.48 159.9 116.48 155.909C116.48 151.915 119.849 150.9 123.999 150.9C128.151 150.9 131.52 151.915 131.52 155.909Z" fill="black"/>
<path d="M143.568 177.149C144.984 179.027 145.827 181.343 145.827 183.841C145.827 187.456 144.075 190.67 141.354 192.757C145.881 192.589 149.127 191.685 149.127 186.777C149.127 182.711 146.904 179.143 143.568 177.149Z" fill="black" fill-opacity="0.314"/>
<path d="M144.319 192.065C146.962 188.05 144.697 184.766 144.697 184.766M133.435 191.882C132.384 188.598 133.585 184.766 133.585 184.766L133.435 191.882ZM138.844 192.613C140.131 187.323 138.658 183.126 138.658 183.126L138.844 192.613Z" stroke="black" stroke-width="4" stroke-linecap="round"/>
<path d="M116.417 177.149C117.833 179.027 118.676 181.343 118.676 183.841C118.676 187.456 116.924 190.67 114.203 192.757C118.73 192.589 121.976 191.685 121.976 186.777C121.976 182.711 119.753 179.143 116.417 177.149V177.149ZM127.275 181.125C126.246 182.843 125.706 184.793 125.709 186.777C125.709 191.853 129.174 192.65 133.941 192.774C129.207 190.867 126.798 186.337 127.275 181.125Z" fill="black" fill-opacity="0.314"/>
<path fill-rule="evenodd" clip-rule="evenodd" d="M103.763 122.509C87.2871 121.385 78.704 140.567 80.954 146.219C82.784 150.813 92.8911 155.448 92.4831 151.233C91.1601 137.558 108.902 122.86 103.763 122.509V122.509ZM144.237 122.509C160.713 121.385 169.296 140.567 167.046 146.219C165.216 150.813 155.109 155.448 155.517 151.233C156.84 137.558 139.098 122.86 144.237 122.509V122.509Z" fill="#784421" stroke="black" stroke-width="4" stroke-linejoin="round"/>
<path fill-rule="evenodd" clip-rule="evenodd" d="M145.758 122.461C161.028 125.445 165.156 144.897 161.883 149.862C161.157 150.961 159.855 151.944 158.367 152.732C161.391 152.057 165.888 149.135 167.049 146.219C169.227 140.744 161.238 122.571 145.758 122.461V122.461Z" fill="black" fill-opacity="0.314"/>
<path fill-rule="evenodd" clip-rule="evenodd" d="M113.513 204.916L135.345 200.348C135.345 200.348 139.071 206.131 143.391 202.835C147.708 199.539 141.669 196.267 141.669 196.267C141.669 196.267 147.732 193.07 141.771 190.198C135.81 187.328 133.821 194.786 133.821 194.786L112.664 198.395C112.664 198.395 107.162 191.27 103.118 195.974C99.0772 200.679 104.624 203.626 104.624 203.626C104.624 203.626 100.175 207.362 105.848 209.867C111.524 212.374 113.216 205.597 113.513 204.916V204.916Z" fill="#E3DBDB" stroke="black" stroke-width="4" stroke-linejoin="round"/>
<path fill-rule="evenodd" clip-rule="evenodd" d="M109.484 195.467C110.075 196.015 110.633 196.574 111.176 197.047C111.248 197.035 111.317 197.021 111.389 197.009C110.867 196.505 110.219 195.945 109.484 195.467ZM142.161 190.398C142.263 190.531 142.353 190.673 142.437 190.818C143.04 192.563 140.517 193.992 139.584 194.963C139.923 195.603 140.751 196.026 141.42 196.58C141.993 196.261 147.141 193.05 142.161 190.398ZM101.954 200.812C102.227 201.458 102.647 202.009 103.076 202.441C103.646 201.786 102.605 201.339 101.954 200.812ZM142.197 196.595C142.329 196.742 142.443 196.91 142.533 197.087C144.342 199.322 141.339 202.067 138.969 201.925C136.641 201.876 135.717 199.705 134.253 198.337C126.975 199.858 119.174 201.478 111.896 203C111.155 204.174 110.894 205.704 109.904 206.786C108.419 209.058 105.122 208.823 103.136 207.27C103.097 207.249 103.064 207.22 103.028 207.197C103.229 208.104 104.003 209.052 105.851 209.87C111.527 212.377 113.216 205.597 113.513 204.916L135.87 200.252C135.87 200.252 139.077 206.133 143.394 202.838C146.904 200.16 143.568 197.499 142.197 196.595V196.595Z" fill="black" fill-opacity="0.314"/>
</g>
<g clip-path="url(#clip1_1_46)">
<path fill-rule="evenodd" clip-rule="evenodd" d="M253.586 97.4365C256.396 88.3808 270.051 77.6755 271.849 77.9868C273.648 78.2981 262.504 98.1709 260.622 99.2824C258.74 100.394 253.603 97.9226 253.586 97.4365Z" fill="#784421" stroke="black" stroke-width="4" stroke-linejoin="round"/>
<path fill-rule="evenodd" clip-rule="evenodd" d="M271.85 77.9838C271.706 77.9589 271.482 78.0071 271.202 78.115C269.905 82.0031 259.78 96.3947 258.055 97.1806C257.083 97.6247 255.399 97.1069 253.955 96.4059C253.821 96.7497 253.693 97.0941 253.587 97.4332C253.604 97.9193 258.74 100.391 260.623 99.2791C262.505 98.1676 273.648 78.2948 271.85 77.9835L271.85 77.9838Z" fill="black" fill-opacity="0.314"/>
<path d="M279.038 140.167C277.797 145.076 275.69 149.717 272.841 153.821C269.992 157.925 266.456 161.411 262.438 164.077C258.421 166.743 254 168.536 249.433 169.353C244.866 170.171 240.243 169.995 235.831 168.838C231.418 167.68 227.304 165.563 223.727 162.609C220.149 159.655 217.178 155.923 214.987 151.627C212.796 147.332 211.426 142.56 210.959 137.586C210.491 132.611 210.935 127.534 212.263 122.648C213.505 117.739 215.611 113.098 218.46 108.994C221.31 104.89 224.845 101.404 228.863 98.7382C232.881 96.0721 237.301 94.2787 241.868 93.4615C246.435 92.6444 251.059 92.8197 255.471 93.9773C259.883 95.135 263.997 97.252 267.575 100.206C271.153 103.16 274.123 106.893 276.315 111.188C278.506 115.483 279.875 120.255 280.343 125.229C280.81 130.204 280.367 135.281 279.038 140.167V140.167Z" fill="#A05A2C" stroke="black" stroke-width="3.99982" stroke-linecap="round" stroke-linejoin="round"/>
<path d="M274.352 132.684C273.39 136.477 271.761 140.062 269.558 143.232C267.355 146.402 264.621 149.094 261.516 151.153C258.411 153.212 254.995 154.597 251.466 155.228C247.936 155.859 244.364 155.723 240.954 154.828C237.545 153.934 234.365 152.298 231.601 150.016C228.836 147.734 226.539 144.85 224.845 141.532C223.15 138.214 222.091 134.527 221.728 130.683C221.365 126.84 221.705 122.917 222.729 119.14C223.691 115.347 225.321 111.762 227.524 108.592C229.727 105.422 232.46 102.729 235.566 100.67C238.671 98.6114 242.087 97.2265 245.616 96.5957C249.145 95.965 252.718 96.1008 256.127 96.9953C259.537 97.8899 262.716 99.5255 265.481 101.808C268.246 104.09 270.542 106.973 272.237 110.291C273.931 113.61 274.991 117.297 275.354 121.14C275.717 124.984 275.376 128.907 274.352 132.684V132.684Z" fill="black" fill-opacity="0.314"/>
<path d="M279.651 121.507C279.652 125.03 279.199 128.642 278.253 132.246C272.885 152.706 253.573 165.385 235.142 160.55C222.472 157.226 213.497 146.478 210.872 133.441C210.904 149.888 220.765 164.493 235.93 168.472C254.361 173.308 273.671 160.628 279.039 140.168C280.71 133.796 280.831 127.416 279.651 121.507V121.507Z" fill="black" fill-opacity="0.314"/>
<path d="M258.941 173.402C257.243 179.872 252.574 178.4 246.742 176.87C240.913 175.341 236.119 174.33 237.817 167.86C239.516 161.386 245.626 157.377 251.455 158.906C257.287 160.436 260.639 166.928 258.941 173.402ZM234.581 167.01C232.883 173.481 228.213 172.009 222.382 170.479C219.14 169.628 216.22 168.939 214.558 167.382C213.23 166.138 212.703 164.34 213.457 161.468C215.155 154.995 221.266 150.986 227.095 152.515C232.926 154.045 236.279 160.537 234.581 167.01Z" fill="#A05A2C" stroke="black" stroke-width="4" stroke-linecap="round" stroke-linejoin="round"/>
<path d="M216.649 168.166C215.356 163.38 218.292 160.512 218.292 160.512M226.516 170.552C228.356 167.397 228.315 163.142 228.315 163.142L226.516 170.552ZM221.438 170.029C221.716 164.243 224.185 160.241 224.185 160.241L221.438 170.029Z" stroke="black" stroke-width="4" stroke-linecap="round"/>
<path d="M274.063 128.273C273.101 132.066 271.472 135.651 269.269 138.822C267.066 141.992 264.332 144.684 261.227 146.743C258.122 148.802 254.706 150.187 251.177 150.818C247.647 151.448 244.075 151.313 240.665 150.418C237.256 149.523 234.076 147.888 231.311 145.606C228.546 143.324 226.25 140.44 224.556 137.122C222.861 133.804 221.802 130.116 221.439 126.273C221.076 122.429 221.416 118.506 222.44 114.73C223.402 110.937 225.032 107.351 227.235 104.181C229.438 101.011 232.171 98.319 235.276 96.26C238.382 94.201 241.798 92.8161 245.327 92.1854C248.856 91.5546 252.429 91.6904 255.838 92.585C259.248 93.4795 262.427 95.1151 265.192 97.3972C267.957 99.6794 270.253 102.563 271.948 105.881C273.642 109.199 274.702 112.887 275.065 116.73C275.428 120.573 275.087 124.497 274.063 128.273V128.273Z" fill="#A05A2C" stroke="black" stroke-width="3.99995" stroke-linecap="round" stroke-linejoin="round"/>
<path d="M274.889 115.945C274.766 118.087 274.434 120.257 273.864 122.429C269.715 138.245 254.776 148.055 240.529 144.317C230.035 141.564 222.83 132.228 221.416 121.181C220.645 134.653 228.432 146.922 240.734 150.15C254.981 153.888 269.92 144.078 274.069 128.262C275.166 124.084 275.4 119.907 274.889 115.945Z" fill="black" fill-opacity="0.314"/>
<path d="M248.556 115.794C248.279 116.882 247.811 117.911 247.178 118.82C246.546 119.73 245.761 120.502 244.87 121.093C243.979 121.683 242.998 122.081 241.986 122.261C240.973 122.442 239.947 122.403 238.969 122.146C237.991 121.89 237.078 121.42 236.285 120.766C235.491 120.111 234.832 119.284 234.345 118.332C233.859 117.379 233.554 116.321 233.45 115.219C233.345 114.116 233.442 112.99 233.736 111.906C234.012 110.818 234.48 109.789 235.113 108.88C235.746 107.97 236.53 107.198 237.421 106.607C238.313 106.017 239.293 105.62 240.306 105.439C241.319 105.258 242.344 105.297 243.322 105.554C244.301 105.81 245.213 106.28 246.007 106.934C246.8 107.589 247.459 108.416 247.946 109.369C248.432 110.321 248.737 111.379 248.842 112.481C248.946 113.584 248.849 114.71 248.556 115.794ZM265.761 120.308C265.484 121.396 265.016 122.425 264.384 123.334C263.751 124.244 262.966 125.016 262.075 125.607C261.184 126.197 260.204 126.595 259.191 126.775C258.178 126.956 257.153 126.917 256.174 126.66C255.196 126.404 254.283 125.934 253.49 125.28C252.696 124.625 252.037 123.798 251.551 122.846C251.064 121.893 250.76 120.835 250.655 119.733C250.55 118.63 250.648 117.504 250.941 116.42C251.217 115.332 251.686 114.303 252.318 113.394C252.951 112.484 253.735 111.712 254.627 111.121C255.518 110.531 256.498 110.134 257.511 109.953C258.524 109.772 259.549 109.811 260.528 110.068C261.506 110.324 262.418 110.794 263.212 111.448C264.006 112.103 264.665 112.93 265.151 113.883C265.638 114.835 265.942 115.893 266.047 116.995C266.151 118.098 266.054 119.224 265.761 120.308Z" fill="white" stroke="black" stroke-width="4.00001" stroke-linecap="round" stroke-linejoin="round"/>
<path d="M245.413 115.979C245.325 116.314 245.178 116.63 244.981 116.91C244.784 117.189 244.541 117.426 244.265 117.607C243.99 117.788 243.687 117.91 243.374 117.965C243.061 118.02 242.745 118.007 242.443 117.928C242.141 117.849 241.859 117.704 241.614 117.503C241.369 117.301 241.165 117.047 241.013 116.754C240.862 116.461 240.766 116.135 240.732 115.795C240.698 115.455 240.725 115.107 240.813 114.772C240.901 114.437 241.048 114.12 241.245 113.841C241.441 113.562 241.685 113.325 241.96 113.144C242.236 112.963 242.539 112.841 242.852 112.786C243.164 112.731 243.481 112.743 243.783 112.823C244.085 112.902 244.366 113.046 244.612 113.248C244.857 113.449 245.061 113.704 245.213 113.997C245.364 114.29 245.459 114.616 245.494 114.956C245.528 115.296 245.5 115.643 245.413 115.979V115.979ZM258.017 119.286C257.84 119.963 257.427 120.548 256.87 120.914C256.313 121.28 255.658 121.395 255.048 121.235C254.438 121.075 253.924 120.653 253.618 120.061C253.313 119.469 253.241 118.756 253.418 118.079C253.596 117.402 254.008 116.816 254.565 116.451C255.122 116.085 255.778 115.97 256.388 116.13C256.997 116.29 257.512 116.712 257.818 117.304C258.123 117.896 258.195 118.609 258.017 119.286V119.286ZM251.452 137.245C250.366 141.382 245.404 143.67 242.701 142.96C239.792 142.197 236.801 137.823 237.886 133.686C238.972 129.547 242.287 129.293 246.029 130.275C249.775 131.257 252.538 133.106 251.452 137.245Z" fill="black"/>
<path d="M256.544 162.11C257.31 164.391 257.441 166.991 256.762 169.581C255.779 173.327 253.324 176.243 250.303 177.762C254.432 178.659 257.606 178.49 258.94 173.405C260.046 169.19 259.011 164.966 256.544 162.11Z" fill="black" fill-opacity="0.314"/>
<path d="M253.165 177.747C256.641 174.212 255.491 170.272 255.491 170.272M243.397 174.982C243.343 171.33 245.467 167.642 245.467 167.642L243.397 174.982ZM248.078 177.019C250.677 171.841 250.489 167.143 250.489 167.143L248.078 177.019Z" stroke="black" stroke-width="4" stroke-linecap="round"/>
<path d="M232.054 155.684C232.82 157.966 232.951 160.566 232.272 163.155C231.289 166.901 228.834 169.818 225.813 171.337C229.942 172.234 233.116 172.065 234.45 166.979C235.556 162.765 234.521 158.541 232.054 155.684V155.684ZM240.766 162.375C239.371 163.912 238.353 165.805 237.816 167.863C236.436 173.122 239.345 174.769 243.611 176.026C239.86 172.929 238.918 167.664 240.766 162.375Z" fill="black" fill-opacity="0.314"/>
<path fill-rule="evenodd" clip-rule="evenodd" d="M235.496 96.0617C220.94 90.997 207.983 108.846 208.475 115.236C208.877 120.431 216.733 127.626 217.511 123.162C220.036 108.676 240.037 97.6414 235.496 96.0617V96.0617ZM272.004 105.64C287.172 108.374 289.698 130.285 286.132 135.61C283.232 139.939 272.855 142.35 274.369 138.079C279.281 124.219 267.273 104.787 272.004 105.64V105.64Z" fill="#784421" stroke="black" stroke-width="4" stroke-linejoin="round"/>
<path fill-rule="evenodd" clip-rule="evenodd" d="M273.389 105.95C286.352 112.656 284.786 133.793 280.484 138.165C279.53 139.131 278.089 139.842 276.532 140.306C279.443 140.322 284.294 138.358 286.134 135.611C289.588 130.452 287.323 109.727 273.389 105.95V105.95Z" fill="black" fill-opacity="0.314"/>
<path fill-rule="evenodd" clip-rule="evenodd" d="M221.884 183.775L242.818 184.208C242.818 184.208 244.607 191.082 249.4 188.689C254.19 186.295 249.632 181.475 249.632 181.475C249.632 181.475 255.971 179.596 251.375 175.208C246.778 170.824 242.956 178.082 242.956 178.082L222.891 176.816C222.891 176.816 219.866 168.13 214.939 172.048C210.015 175.967 214.217 180.335 214.217 180.335C214.217 180.335 209.188 183.154 213.624 187.092C218.062 191.034 221.431 184.411 221.884 183.775V183.775Z" fill="#E3DBDB" stroke="black" stroke-width="4" stroke-linejoin="round"/>
<path fill-rule="evenodd" clip-rule="evenodd" d="M220.819 173.029C221.203 173.737 221.554 174.448 221.916 175.067C221.984 175.072 222.05 175.073 222.118 175.078C221.784 174.432 221.352 173.699 220.819 173.029ZM251.672 175.508C251.728 175.67 251.77 175.839 251.807 176.009C251.876 177.96 249.212 178.844 248.106 179.629C248.238 180.373 248.87 181.008 249.323 181.74C249.926 181.545 255.443 179.435 251.672 175.508ZM212.573 176.786C212.644 177.521 212.873 178.191 213.143 178.74C213.835 178.196 213.017 177.487 212.573 176.786ZM250.02 181.939C250.098 182.123 250.156 182.325 250.189 182.529C251.213 185.273 247.758 187.407 245.658 186.699C243.572 186.097 243.329 183.629 242.38 181.864C235.401 181.719 227.925 181.552 220.946 181.407C219.959 182.448 219.307 183.973 218.12 184.859C216.163 186.863 213.253 185.839 211.884 183.759C211.854 183.729 211.832 183.691 211.806 183.658C211.741 184.646 212.181 185.811 213.626 187.096C218.064 191.038 221.431 184.411 221.884 183.775L243.318 184.233C243.318 184.233 244.611 191.087 249.402 188.693C253.296 186.748 251.01 183.201 250.02 181.939V181.939Z" fill="black" fill-opacity="0.314"/>
</g>
<defs>
<clipPath id="clip0_1_46">
<rect width="88" height="114" fill="white" transform="translate(80 97)"/>
</clipPath>
<clipPath id="clip1_1_46">
<rect width="82.064" height="122.148" fill="white" transform="translate(220.998 64) rotate(14.7009)"/>
</clipPath>
</defs>
</svg>
